<svg width="24" height="24" viewBox="0 0 24 24" fill="none" xmlns="http://www.w3.org/2000/svg">
<path d="M16.5 9.49998C16.8905 9.89051 16.8905 10.5237 16.5 10.9142L11.7071 15.7071C11.3166 16.0976 10.6834 16.0976 10.2929 15.7071L8 13.4142C7.60948 13.0237 7.60948 12.3905 8 12C8.39053 11.6095 9.02369 11.6095 9.41422 12L11 13.5858L15.0858 9.49998C15.1346 9.45117 15.1872 9.40845 15.2427 9.37184C15.6308 9.11556 16.1583 9.15827 16.5 9.49998Z" fill="black"/>
<path fill-rule="evenodd" clip-rule="evenodd" d="M4 4.99998H6V3.74998C6 3.19769 6.44772 2.74998 7 2.74998C7.55229 2.74998 8 3.19769 8 3.74998V4.99998H16V3.74998C16 3.19769 16.4477 2.74998 17 2.74998C17.5523 2.74998 18 3.19769 18 3.74998V4.99998H20C21.1046 4.99998 22 5.89541 22 6.99998V19C22 20.1046 21.1046 21 20 21H4C2.89543 21 2 20.1046 2 19V6.99998C2 5.89541 2.89543 4.99998 4 4.99998ZM4 19L4 6.99998H20V19H4Z" fill="black"/>
</svg>
